<mxfile host="Electron" agent="Mozilla/5.0 (Windows NT 10.0; Win64; x64) AppleWebKit/537.36 (KHTML, like Gecko) draw.io/27.0.2 Chrome/134.0.6998.205 Electron/35.3.0 Safari/537.36" version="27.0.2" pages="2">
  <diagram name="GUI plan" id="buqaVbEnRoytyz1jPxpW">
    <mxGraphModel dx="1428" dy="841" grid="1" gridSize="10" guides="1" tooltips="1" connect="1" arrows="1" fold="1" page="1" pageScale="1" pageWidth="827" pageHeight="1169" math="0" shadow="0">
      <root>
        <mxCell id="0" />
        <mxCell id="1" parent="0" />
        <mxCell id="d-CbzwpbONu_e1mPj19Q-8" value="" style="rounded=0;whiteSpace=wrap;html=1;" vertex="1" parent="1">
          <mxGeometry x="120" y="20" width="230" height="140" as="geometry" />
        </mxCell>
        <mxCell id="d-CbzwpbONu_e1mPj19Q-9" value="Screen D" style="text;html=1;align=center;verticalAlign=middle;whiteSpace=wrap;rounded=0;" vertex="1" parent="1">
          <mxGeometry x="290" y="20" width="60" height="30" as="geometry" />
        </mxCell>
        <mxCell id="d-CbzwpbONu_e1mPj19Q-10" value="" style="rounded=0;whiteSpace=wrap;html=1;" vertex="1" parent="1">
          <mxGeometry x="100" y="50" width="230" height="140" as="geometry" />
        </mxCell>
        <mxCell id="d-CbzwpbONu_e1mPj19Q-11" value="Screen C" style="text;html=1;align=center;verticalAlign=middle;whiteSpace=wrap;rounded=0;" vertex="1" parent="1">
          <mxGeometry x="270" y="50" width="60" height="30" as="geometry" />
        </mxCell>
        <mxCell id="d-CbzwpbONu_e1mPj19Q-12" value="" style="rounded=0;whiteSpace=wrap;html=1;" vertex="1" parent="1">
          <mxGeometry x="80" y="80" width="230" height="140" as="geometry" />
        </mxCell>
        <mxCell id="d-CbzwpbONu_e1mPj19Q-13" value="Screen B" style="text;html=1;align=center;verticalAlign=middle;whiteSpace=wrap;rounded=0;" vertex="1" parent="1">
          <mxGeometry x="250" y="80" width="60" height="30" as="geometry" />
        </mxCell>
        <mxCell id="d-CbzwpbONu_e1mPj19Q-14" value="" style="rounded=0;whiteSpace=wrap;html=1;" vertex="1" parent="1">
          <mxGeometry x="60" y="110" width="230" height="140" as="geometry" />
        </mxCell>
        <mxCell id="d-CbzwpbONu_e1mPj19Q-15" value="Screen A" style="text;html=1;align=center;verticalAlign=middle;whiteSpace=wrap;rounded=0;" vertex="1" parent="1">
          <mxGeometry x="230" y="110" width="60" height="30" as="geometry" />
        </mxCell>
        <mxCell id="d-CbzwpbONu_e1mPj19Q-16" value="Main" style="text;html=1;align=center;verticalAlign=middle;whiteSpace=wrap;rounded=0;" vertex="1" parent="1">
          <mxGeometry x="145" y="165" width="60" height="30" as="geometry" />
        </mxCell>
        <mxCell id="d-CbzwpbONu_e1mPj19Q-17" value="" style="curved=1;endArrow=classic;html=1;rounded=0;exitX=0.75;exitY=1;exitDx=0;exitDy=0;" edge="1" parent="1" source="d-CbzwpbONu_e1mPj19Q-14">
          <mxGeometry width="50" height="50" relative="1" as="geometry">
            <mxPoint x="260" y="270" as="sourcePoint" />
            <mxPoint x="310" y="220" as="targetPoint" />
            <Array as="points">
              <mxPoint x="300" y="280" />
              <mxPoint x="320" y="270" />
            </Array>
          </mxGeometry>
        </mxCell>
        <mxCell id="d-CbzwpbONu_e1mPj19Q-18" value="" style="curved=1;endArrow=classic;html=1;rounded=0;exitX=0.75;exitY=1;exitDx=0;exitDy=0;entryX=1;entryY=1;entryDx=0;entryDy=0;" edge="1" parent="1" source="d-CbzwpbONu_e1mPj19Q-14" target="d-CbzwpbONu_e1mPj19Q-10">
          <mxGeometry width="50" height="50" relative="1" as="geometry">
            <mxPoint x="243" y="260" as="sourcePoint" />
            <mxPoint x="320" y="230" as="targetPoint" />
            <Array as="points">
              <mxPoint x="310" y="290" />
              <mxPoint x="350" y="250" />
            </Array>
          </mxGeometry>
        </mxCell>
        <mxCell id="d-CbzwpbONu_e1mPj19Q-19" value="" style="curved=1;endArrow=classic;html=1;rounded=0;exitX=0.75;exitY=1;exitDx=0;exitDy=0;entryX=1;entryY=1;entryDx=0;entryDy=0;" edge="1" parent="1" source="d-CbzwpbONu_e1mPj19Q-14" target="d-CbzwpbONu_e1mPj19Q-8">
          <mxGeometry width="50" height="50" relative="1" as="geometry">
            <mxPoint x="243" y="260" as="sourcePoint" />
            <mxPoint x="340" y="200" as="targetPoint" />
            <Array as="points">
              <mxPoint x="320" y="290" />
              <mxPoint x="360" y="250" />
            </Array>
          </mxGeometry>
        </mxCell>
        <mxCell id="d-CbzwpbONu_e1mPj19Q-20" value="" style="curved=1;endArrow=classic;html=1;rounded=0;entryX=0;entryY=0;entryDx=0;entryDy=0;" edge="1" parent="1" target="d-CbzwpbONu_e1mPj19Q-14">
          <mxGeometry width="50" height="50" relative="1" as="geometry">
            <mxPoint x="120" y="20" as="sourcePoint" />
            <mxPoint x="70" y="100" as="targetPoint" />
            <Array as="points">
              <mxPoint x="60" y="20" />
              <mxPoint x="30" y="70" />
            </Array>
          </mxGeometry>
        </mxCell>
        <mxCell id="d-CbzwpbONu_e1mPj19Q-21" value="" style="curved=1;endArrow=classic;html=1;rounded=0;exitX=0;exitY=0;exitDx=0;exitDy=0;" edge="1" parent="1" source="d-CbzwpbONu_e1mPj19Q-10">
          <mxGeometry width="50" height="50" relative="1" as="geometry">
            <mxPoint x="130" y="30" as="sourcePoint" />
            <mxPoint x="60" y="110" as="targetPoint" />
            <Array as="points">
              <mxPoint x="70" y="50" />
              <mxPoint x="40" y="80" />
            </Array>
          </mxGeometry>
        </mxCell>
        <mxCell id="d-CbzwpbONu_e1mPj19Q-22" value="" style="curved=1;endArrow=classic;html=1;rounded=0;exitX=0;exitY=0;exitDx=0;exitDy=0;entryX=0;entryY=0;entryDx=0;entryDy=0;" edge="1" parent="1" source="d-CbzwpbONu_e1mPj19Q-12" target="d-CbzwpbONu_e1mPj19Q-14">
          <mxGeometry width="50" height="50" relative="1" as="geometry">
            <mxPoint x="110" y="60" as="sourcePoint" />
            <mxPoint x="70" y="120" as="targetPoint" />
            <Array as="points">
              <mxPoint x="60" y="70" />
              <mxPoint x="50" y="90" />
            </Array>
          </mxGeometry>
        </mxCell>
        <mxCell id="d-CbzwpbONu_e1mPj19Q-23" value="" style="endArrow=classic;html=1;rounded=0;exitX=1;exitY=0.75;exitDx=0;exitDy=0;entryX=0;entryY=0;entryDx=0;entryDy=0;" edge="1" parent="1" source="d-CbzwpbONu_e1mPj19Q-12" target="d-CbzwpbONu_e1mPj19Q-24">
          <mxGeometry width="50" height="50" relative="1" as="geometry">
            <mxPoint x="390" y="360" as="sourcePoint" />
            <mxPoint x="440" y="80" as="targetPoint" />
          </mxGeometry>
        </mxCell>
        <mxCell id="d-CbzwpbONu_e1mPj19Q-24" value="Menu" style="rounded=0;whiteSpace=wrap;html=1;" vertex="1" parent="1">
          <mxGeometry x="460" y="80" width="230" height="140" as="geometry" />
        </mxCell>
        <mxCell id="d-CbzwpbONu_e1mPj19Q-25" value="Menu" style="rounded=0;whiteSpace=wrap;html=1;" vertex="1" parent="1">
          <mxGeometry x="260" y="320" width="180" height="90" as="geometry" />
        </mxCell>
        <mxCell id="d-CbzwpbONu_e1mPj19Q-26" value="Screen B" style="text;html=1;align=center;verticalAlign=middle;whiteSpace=wrap;rounded=0;" vertex="1" parent="1">
          <mxGeometry x="630" y="80" width="60" height="30" as="geometry" />
        </mxCell>
        <mxCell id="d-CbzwpbONu_e1mPj19Q-30" value="" style="endArrow=classic;startArrow=classic;html=1;rounded=0;entryX=0.25;entryY=1;entryDx=0;entryDy=0;exitX=0.5;exitY=0;exitDx=0;exitDy=0;" edge="1" parent="1" source="d-CbzwpbONu_e1mPj19Q-25" target="d-CbzwpbONu_e1mPj19Q-24">
          <mxGeometry width="50" height="50" relative="1" as="geometry">
            <mxPoint x="490" y="290" as="sourcePoint" />
            <mxPoint x="540" y="240" as="targetPoint" />
          </mxGeometry>
        </mxCell>
        <mxCell id="d-CbzwpbONu_e1mPj19Q-31" value="Menu" style="rounded=0;whiteSpace=wrap;html=1;" vertex="1" parent="1">
          <mxGeometry x="470" y="320" width="160" height="90" as="geometry" />
        </mxCell>
        <mxCell id="d-CbzwpbONu_e1mPj19Q-32" value="" style="endArrow=classic;startArrow=classic;html=1;rounded=0;entryX=0.5;entryY=1;entryDx=0;entryDy=0;exitX=0.5;exitY=0;exitDx=0;exitDy=0;" edge="1" parent="1" source="d-CbzwpbONu_e1mPj19Q-31" target="d-CbzwpbONu_e1mPj19Q-24">
          <mxGeometry width="50" height="50" relative="1" as="geometry">
            <mxPoint x="360" y="330" as="sourcePoint" />
            <mxPoint x="528" y="230" as="targetPoint" />
          </mxGeometry>
        </mxCell>
        <mxCell id="d-CbzwpbONu_e1mPj19Q-33" value="Menu" style="rounded=0;whiteSpace=wrap;html=1;" vertex="1" parent="1">
          <mxGeometry x="667" y="320" width="160" height="90" as="geometry" />
        </mxCell>
        <mxCell id="d-CbzwpbONu_e1mPj19Q-34" value="" style="endArrow=classic;startArrow=classic;html=1;rounded=0;entryX=0.75;entryY=1;entryDx=0;entryDy=0;exitX=0.5;exitY=0;exitDx=0;exitDy=0;" edge="1" parent="1" source="d-CbzwpbONu_e1mPj19Q-33" target="d-CbzwpbONu_e1mPj19Q-24">
          <mxGeometry width="50" height="50" relative="1" as="geometry">
            <mxPoint x="560" y="330" as="sourcePoint" />
            <mxPoint x="585" y="230" as="targetPoint" />
          </mxGeometry>
        </mxCell>
        <mxCell id="d-CbzwpbONu_e1mPj19Q-35" value="&lt;b&gt;&lt;font style=&quot;font-size: 14px;&quot;&gt;...&lt;/font&gt;&lt;/b&gt;" style="text;html=1;align=center;verticalAlign=middle;whiteSpace=wrap;rounded=0;" vertex="1" parent="1">
          <mxGeometry x="530" y="450" width="60" height="30" as="geometry" />
        </mxCell>
        <mxCell id="d-CbzwpbONu_e1mPj19Q-36" value="" style="curved=1;endArrow=classic;html=1;rounded=0;startArrow=block;startFill=1;entryX=0.609;entryY=0.993;entryDx=0;entryDy=0;exitX=1;exitY=0;exitDx=0;exitDy=0;entryPerimeter=0;" edge="1" parent="1" source="d-CbzwpbONu_e1mPj19Q-35" target="d-CbzwpbONu_e1mPj19Q-24">
          <mxGeometry width="50" height="50" relative="1" as="geometry">
            <mxPoint x="400" y="530" as="sourcePoint" />
            <mxPoint x="450" y="480" as="targetPoint" />
            <Array as="points">
              <mxPoint x="640" y="420" />
              <mxPoint x="650" y="380" />
              <mxPoint x="650" y="290" />
              <mxPoint x="640" y="250" />
            </Array>
          </mxGeometry>
        </mxCell>
        <mxCell id="d-CbzwpbONu_e1mPj19Q-40" value="" style="endArrow=classic;html=1;rounded=0;exitX=0.25;exitY=1;exitDx=0;exitDy=0;entryX=0.5;entryY=0;entryDx=0;entryDy=0;" edge="1" parent="1" target="d-CbzwpbONu_e1mPj19Q-41" source="d-CbzwpbONu_e1mPj19Q-25">
          <mxGeometry width="50" height="50" relative="1" as="geometry">
            <mxPoint y="555" as="sourcePoint" />
            <mxPoint x="130" y="450" as="targetPoint" />
          </mxGeometry>
        </mxCell>
        <mxCell id="d-CbzwpbONu_e1mPj19Q-41" value="Menu" style="rounded=0;whiteSpace=wrap;html=1;" vertex="1" parent="1">
          <mxGeometry x="150" y="450" width="190" height="90" as="geometry" />
        </mxCell>
        <mxCell id="d-CbzwpbONu_e1mPj19Q-42" value="Menu" style="rounded=0;whiteSpace=wrap;html=1;" vertex="1" parent="1">
          <mxGeometry x="45" y="610" width="100" height="30" as="geometry" />
        </mxCell>
        <mxCell id="d-CbzwpbONu_e1mPj19Q-43" value="Screen B/1" style="text;html=1;align=center;verticalAlign=middle;whiteSpace=wrap;rounded=0;" vertex="1" parent="1">
          <mxGeometry x="320" y="450" width="60" height="30" as="geometry" />
        </mxCell>
        <mxCell id="d-CbzwpbONu_e1mPj19Q-44" value="" style="endArrow=classic;startArrow=classic;html=1;rounded=0;entryX=0.25;entryY=1;entryDx=0;entryDy=0;exitX=0.5;exitY=0;exitDx=0;exitDy=0;" edge="1" parent="1" source="d-CbzwpbONu_e1mPj19Q-42" target="d-CbzwpbONu_e1mPj19Q-41">
          <mxGeometry width="50" height="50" relative="1" as="geometry">
            <mxPoint x="180" y="660" as="sourcePoint" />
            <mxPoint x="230" y="610" as="targetPoint" />
          </mxGeometry>
        </mxCell>
        <mxCell id="d-CbzwpbONu_e1mPj19Q-45" value="Menu" style="rounded=0;whiteSpace=wrap;html=1;" vertex="1" parent="1">
          <mxGeometry x="175" y="610" width="105" height="30" as="geometry" />
        </mxCell>
        <mxCell id="d-CbzwpbONu_e1mPj19Q-46" value="" style="endArrow=classic;startArrow=classic;html=1;rounded=0;entryX=0.5;entryY=1;entryDx=0;entryDy=0;exitX=0.5;exitY=0;exitDx=0;exitDy=0;" edge="1" parent="1" source="d-CbzwpbONu_e1mPj19Q-45" target="d-CbzwpbONu_e1mPj19Q-41">
          <mxGeometry width="50" height="50" relative="1" as="geometry">
            <mxPoint x="50" y="700" as="sourcePoint" />
            <mxPoint x="218" y="600" as="targetPoint" />
          </mxGeometry>
        </mxCell>
        <mxCell id="d-CbzwpbONu_e1mPj19Q-47" value="Menu" style="rounded=0;whiteSpace=wrap;html=1;" vertex="1" parent="1">
          <mxGeometry x="340" y="610" width="90" height="30" as="geometry" />
        </mxCell>
        <mxCell id="d-CbzwpbONu_e1mPj19Q-48" value="" style="endArrow=classic;startArrow=classic;html=1;rounded=0;entryX=0.75;entryY=1;entryDx=0;entryDy=0;exitX=0.5;exitY=0;exitDx=0;exitDy=0;" edge="1" parent="1" source="d-CbzwpbONu_e1mPj19Q-47" target="d-CbzwpbONu_e1mPj19Q-41">
          <mxGeometry width="50" height="50" relative="1" as="geometry">
            <mxPoint x="250" y="700" as="sourcePoint" />
            <mxPoint x="275" y="600" as="targetPoint" />
          </mxGeometry>
        </mxCell>
        <mxCell id="d-CbzwpbONu_e1mPj19Q-49" value="&lt;b&gt;&lt;font style=&quot;font-size: 14px;&quot;&gt;...&lt;/font&gt;&lt;/b&gt;" style="text;html=1;align=center;verticalAlign=middle;whiteSpace=wrap;rounded=0;" vertex="1" parent="1">
          <mxGeometry x="190" y="680" width="60" height="40" as="geometry" />
        </mxCell>
        <mxCell id="d-CbzwpbONu_e1mPj19Q-50" value="" style="curved=1;endArrow=classic;html=1;rounded=0;startArrow=block;startFill=1;entryX=0.609;entryY=0.993;entryDx=0;entryDy=0;entryPerimeter=0;" edge="1" parent="1" target="d-CbzwpbONu_e1mPj19Q-41">
          <mxGeometry width="50" height="50" relative="1" as="geometry">
            <mxPoint x="250" y="680" as="sourcePoint" />
            <mxPoint x="140" y="850" as="targetPoint" />
            <Array as="points">
              <mxPoint x="290" y="670" />
              <mxPoint x="310" y="660" />
              <mxPoint x="310" y="640" />
            </Array>
          </mxGeometry>
        </mxCell>
      </root>
    </mxGraphModel>
  </diagram>
  <diagram id="JIVBQouyrwUqZaxHmn24" name="GUI looks">
    <mxGraphModel dx="570" dy="336" grid="1" gridSize="10" guides="1" tooltips="1" connect="1" arrows="1" fold="1" page="1" pageScale="1" pageWidth="827" pageHeight="1169" math="0" shadow="0">
      <root>
        <mxCell id="0" />
        <mxCell id="1" parent="0" />
        <mxCell id="HpYjvm5Cg7NbYrYv6aXX-3" value="" style="rounded=0;whiteSpace=wrap;html=1;" parent="1" vertex="1">
          <mxGeometry x="80" y="40" width="400" height="240" as="geometry" />
        </mxCell>
        <mxCell id="b6hRnU-GCGQrzbsoPXIs-3" value="" style="rounded=1;whiteSpace=wrap;html=1;" parent="1" vertex="1">
          <mxGeometry x="140" y="120" width="330" height="154.06" as="geometry" />
        </mxCell>
        <mxCell id="HpYjvm5Cg7NbYrYv6aXX-19" value="" style="shape=cylinder3;whiteSpace=wrap;html=1;boundedLbl=1;backgroundOutline=1;size=15;rotation=90;" parent="1" vertex="1">
          <mxGeometry x="354.38" y="8.120000000000005" width="35" height="113.75" as="geometry" />
        </mxCell>
        <mxCell id="HpYjvm5Cg7NbYrYv6aXX-2" value="&lt;h1 style=&quot;margin-top: 0px;&quot;&gt;Home&lt;/h1&gt;" style="text;html=1;whiteSpace=wrap;overflow=hidden;rounded=0;" parent="1" vertex="1">
          <mxGeometry width="130" height="50" as="geometry" />
        </mxCell>
        <mxCell id="HpYjvm5Cg7NbYrYv6aXX-4" value="" style="endArrow=none;html=1;rounded=0;" parent="1" edge="1">
          <mxGeometry width="50" height="50" relative="1" as="geometry">
            <mxPoint x="130" y="40" as="sourcePoint" />
            <mxPoint x="130" y="280" as="targetPoint" />
          </mxGeometry>
        </mxCell>
        <mxCell id="HpYjvm5Cg7NbYrYv6aXX-7" value="" style="html=1;verticalLabelPosition=bottom;align=center;labelBackgroundColor=#ffffff;verticalAlign=top;strokeWidth=2;strokeColor=#0080F0;shadow=0;dashed=0;shape=mxgraph.ios7.icons.wifi;pointerEvents=1" parent="1" vertex="1">
          <mxGeometry x="440" y="50" width="29.7" height="21" as="geometry" />
        </mxCell>
        <mxCell id="HpYjvm5Cg7NbYrYv6aXX-17" value="" style="shape=cylinder3;whiteSpace=wrap;html=1;boundedLbl=1;backgroundOutline=1;size=15;rotation=90;" parent="1" vertex="1">
          <mxGeometry x="340" y="27.49000000000001" width="35" height="75" as="geometry" />
        </mxCell>
        <mxCell id="HpYjvm5Cg7NbYrYv6aXX-18" value="" style="shape=cylinder3;whiteSpace=wrap;html=1;boundedLbl=1;backgroundOutline=1;size=15;rotation=90;" parent="1" vertex="1">
          <mxGeometry x="320" y="42.49000000000001" width="35" height="45" as="geometry" />
        </mxCell>
        <mxCell id="HpYjvm5Cg7NbYrYv6aXX-20" value="" style="shape=cylinder3;whiteSpace=wrap;html=1;boundedLbl=1;backgroundOutline=1;size=15;rotation=90;" parent="1" vertex="1">
          <mxGeometry x="410" y="57.379999999999995" width="17.18" height="15.24" as="geometry" />
        </mxCell>
        <mxCell id="HpYjvm5Cg7NbYrYv6aXX-21" value="x %" style="text;html=1;align=center;verticalAlign=middle;whiteSpace=wrap;rounded=0;" parent="1" vertex="1">
          <mxGeometry x="260" y="50" width="60" height="30" as="geometry" />
        </mxCell>
        <mxCell id="HpYjvm5Cg7NbYrYv6aXX-22" value="Temperature&lt;div&gt;Humidity&lt;/div&gt;" style="text;html=1;align=center;verticalAlign=middle;whiteSpace=wrap;rounded=0;" parent="1" vertex="1">
          <mxGeometry x="205" y="145" width="90" height="50" as="geometry" />
        </mxCell>
        <mxCell id="HpYjvm5Cg7NbYrYv6aXX-23" value="&lt;font style=&quot;font-size: 14px;&quot;&gt;&lt;b&gt;Tempreture&lt;/b&gt;&lt;/font&gt; (wanted)" style="text;html=1;align=center;verticalAlign=middle;whiteSpace=wrap;rounded=0;" parent="1" vertex="1">
          <mxGeometry x="351.88" y="152.49" width="60" height="30" as="geometry" />
        </mxCell>
        <mxCell id="HpYjvm5Cg7NbYrYv6aXX-24" value="Cooling,&lt;div&gt;&amp;nbsp;off,&lt;div&gt;Heating&lt;/div&gt;&lt;/div&gt;" style="text;html=1;align=center;verticalAlign=middle;whiteSpace=wrap;rounded=0;" parent="1" vertex="1">
          <mxGeometry x="580" y="705.88" width="110" height="90" as="geometry" />
        </mxCell>
        <mxCell id="HpYjvm5Cg7NbYrYv6aXX-25" value="" style="ellipse;whiteSpace=wrap;html=1;aspect=fixed;strokeWidth=6;" parent="1" vertex="1">
          <mxGeometry x="88.38" y="242" width="32" height="32" as="geometry" />
        </mxCell>
        <mxCell id="HpYjvm5Cg7NbYrYv6aXX-26" value="" style="rounded=0;whiteSpace=wrap;html=1;rotation=90;strokeColor=none;" parent="1" vertex="1">
          <mxGeometry x="87.19" y="237.81" width="34.38" height="20" as="geometry" />
        </mxCell>
        <mxCell id="HpYjvm5Cg7NbYrYv6aXX-27" value="" style="endArrow=none;html=1;rounded=0;strokeWidth=6;" parent="1" edge="1">
          <mxGeometry width="50" height="50" relative="1" as="geometry">
            <mxPoint x="104.88" y="263.81" as="sourcePoint" />
            <mxPoint x="105" y="234" as="targetPoint" />
            <Array as="points" />
          </mxGeometry>
        </mxCell>
        <mxCell id="HpYjvm5Cg7NbYrYv6aXX-28" value="" style="endArrow=classic;html=1;rounded=0;" parent="1" edge="1">
          <mxGeometry width="50" height="50" relative="1" as="geometry">
            <mxPoint x="100" y="370" as="sourcePoint" />
            <mxPoint x="100" y="290" as="targetPoint" />
          </mxGeometry>
        </mxCell>
        <mxCell id="HpYjvm5Cg7NbYrYv6aXX-29" value="screen on off" style="text;html=1;align=center;verticalAlign=middle;resizable=0;points=[];autosize=1;strokeColor=none;fillColor=none;" parent="1" vertex="1">
          <mxGeometry x="65" y="368" width="90" height="30" as="geometry" />
        </mxCell>
        <mxCell id="HpYjvm5Cg7NbYrYv6aXX-30" value="&lt;h1 style=&quot;margin-top: 0px;&quot;&gt;Menu&lt;/h1&gt;" style="text;html=1;whiteSpace=wrap;overflow=hidden;rounded=0;" parent="1" vertex="1">
          <mxGeometry y="514.37" width="130" height="50" as="geometry" />
        </mxCell>
        <mxCell id="HpYjvm5Cg7NbYrYv6aXX-31" value="" style="rounded=0;whiteSpace=wrap;html=1;" parent="1" vertex="1">
          <mxGeometry x="80" y="564.37" width="400" height="240" as="geometry" />
        </mxCell>
        <mxCell id="HpYjvm5Cg7NbYrYv6aXX-32" value="" style="shape=cylinder3;whiteSpace=wrap;html=1;boundedLbl=1;backgroundOutline=1;size=15;rotation=90;" parent="1" vertex="1">
          <mxGeometry x="354.38" y="530" width="35" height="113.75" as="geometry" />
        </mxCell>
        <mxCell id="HpYjvm5Cg7NbYrYv6aXX-33" value="" style="endArrow=none;html=1;rounded=0;" parent="1" edge="1">
          <mxGeometry width="50" height="50" relative="1" as="geometry">
            <mxPoint x="130" y="563.88" as="sourcePoint" />
            <mxPoint x="130" y="803.88" as="targetPoint" />
          </mxGeometry>
        </mxCell>
        <mxCell id="HpYjvm5Cg7NbYrYv6aXX-34" value="" style="html=1;verticalLabelPosition=bottom;align=center;labelBackgroundColor=#ffffff;verticalAlign=top;strokeWidth=2;strokeColor=#0080F0;shadow=0;dashed=0;shape=mxgraph.ios7.icons.wifi;pointerEvents=1" parent="1" vertex="1">
          <mxGeometry x="440" y="571.88" width="29.7" height="21" as="geometry" />
        </mxCell>
        <mxCell id="HpYjvm5Cg7NbYrYv6aXX-36" value="" style="shape=cylinder3;whiteSpace=wrap;html=1;boundedLbl=1;backgroundOutline=1;size=15;rotation=90;" parent="1" vertex="1">
          <mxGeometry x="340" y="549.37" width="35" height="75" as="geometry" />
        </mxCell>
        <mxCell id="HpYjvm5Cg7NbYrYv6aXX-37" value="" style="shape=cylinder3;whiteSpace=wrap;html=1;boundedLbl=1;backgroundOutline=1;size=15;rotation=90;" parent="1" vertex="1">
          <mxGeometry x="320" y="564.37" width="35" height="45" as="geometry" />
        </mxCell>
        <mxCell id="HpYjvm5Cg7NbYrYv6aXX-38" value="" style="shape=cylinder3;whiteSpace=wrap;html=1;boundedLbl=1;backgroundOutline=1;size=15;rotation=90;" parent="1" vertex="1">
          <mxGeometry x="410" y="579.26" width="17.18" height="15.24" as="geometry" />
        </mxCell>
        <mxCell id="HpYjvm5Cg7NbYrYv6aXX-39" value="x %" style="text;html=1;align=center;verticalAlign=middle;whiteSpace=wrap;rounded=0;" parent="1" vertex="1">
          <mxGeometry x="260" y="571.88" width="60" height="30" as="geometry" />
        </mxCell>
        <mxCell id="HpYjvm5Cg7NbYrYv6aXX-43" value="" style="ellipse;whiteSpace=wrap;html=1;aspect=fixed;strokeWidth=6;" parent="1" vertex="1">
          <mxGeometry x="88.38" y="763.88" width="32" height="32" as="geometry" />
        </mxCell>
        <mxCell id="HpYjvm5Cg7NbYrYv6aXX-44" value="" style="rounded=0;whiteSpace=wrap;html=1;rotation=90;strokeColor=none;" parent="1" vertex="1">
          <mxGeometry x="87.19" y="759.69" width="34.38" height="20" as="geometry" />
        </mxCell>
        <mxCell id="HpYjvm5Cg7NbYrYv6aXX-45" value="" style="endArrow=none;html=1;rounded=0;strokeWidth=6;" parent="1" edge="1">
          <mxGeometry width="50" height="50" relative="1" as="geometry">
            <mxPoint x="104.88" y="785.69" as="sourcePoint" />
            <mxPoint x="105" y="755.88" as="targetPoint" />
            <Array as="points" />
          </mxGeometry>
        </mxCell>
        <mxCell id="HpYjvm5Cg7NbYrYv6aXX-49" value="" style="whiteSpace=wrap;html=1;aspect=fixed;" parent="1" vertex="1">
          <mxGeometry x="92.19" y="584.52" width="24.38" height="24.38" as="geometry" />
        </mxCell>
        <mxCell id="HpYjvm5Cg7NbYrYv6aXX-50" value="" style="triangle;whiteSpace=wrap;html=1;rotation=-90;" parent="1" vertex="1">
          <mxGeometry x="95.48000000000002" y="560" width="17.81" height="40" as="geometry" />
        </mxCell>
        <mxCell id="HpYjvm5Cg7NbYrYv6aXX-51" value="" style="endArrow=classic;html=1;rounded=0;" parent="1" edge="1">
          <mxGeometry width="50" height="50" relative="1" as="geometry">
            <mxPoint x="190" y="540" as="sourcePoint" />
            <mxPoint x="100" y="560" as="targetPoint" />
          </mxGeometry>
        </mxCell>
        <mxCell id="HpYjvm5Cg7NbYrYv6aXX-52" value="Home" style="text;html=1;align=center;verticalAlign=middle;resizable=0;points=[];autosize=1;strokeColor=none;fillColor=none;" parent="1" vertex="1">
          <mxGeometry x="180" y="528" width="60" height="30" as="geometry" />
        </mxCell>
        <mxCell id="HpYjvm5Cg7NbYrYv6aXX-61" value="" style="whiteSpace=wrap;html=1;aspect=fixed;fillColor=#666666;" parent="1" vertex="1">
          <mxGeometry x="86" y="200" width="20" height="20" as="geometry" />
        </mxCell>
        <mxCell id="HpYjvm5Cg7NbYrYv6aXX-62" value="" style="whiteSpace=wrap;html=1;aspect=fixed;fillColor=#3399FF;" parent="1" vertex="1">
          <mxGeometry x="86" y="180" width="20" height="20" as="geometry" />
        </mxCell>
        <mxCell id="HpYjvm5Cg7NbYrYv6aXX-64" value="" style="whiteSpace=wrap;html=1;aspect=fixed;fillColor=#3399FF;" parent="1" vertex="1">
          <mxGeometry x="106" y="200" width="20" height="20" as="geometry" />
        </mxCell>
        <mxCell id="HpYjvm5Cg7NbYrYv6aXX-65" value="" style="whiteSpace=wrap;html=1;aspect=fixed;fillColor=#FF0000;" parent="1" vertex="1">
          <mxGeometry x="115.69999999999999" y="180" width="10" height="10" as="geometry" />
        </mxCell>
        <mxCell id="HpYjvm5Cg7NbYrYv6aXX-66" value="" style="whiteSpace=wrap;html=1;aspect=fixed;fillColor=#666666;" parent="1" vertex="1">
          <mxGeometry x="85" y="721" width="20" height="20" as="geometry" />
        </mxCell>
        <mxCell id="HpYjvm5Cg7NbYrYv6aXX-67" value="" style="whiteSpace=wrap;html=1;aspect=fixed;fillColor=#3399FF;" parent="1" vertex="1">
          <mxGeometry x="85" y="701" width="20" height="20" as="geometry" />
        </mxCell>
        <mxCell id="HpYjvm5Cg7NbYrYv6aXX-68" value="" style="whiteSpace=wrap;html=1;aspect=fixed;fillColor=#3399FF;" parent="1" vertex="1">
          <mxGeometry x="105" y="721" width="20" height="20" as="geometry" />
        </mxCell>
        <mxCell id="HpYjvm5Cg7NbYrYv6aXX-69" value="" style="whiteSpace=wrap;html=1;aspect=fixed;fillColor=#FF0000;" parent="1" vertex="1">
          <mxGeometry x="114.69999999999999" y="701" width="10" height="10" as="geometry" />
        </mxCell>
        <mxCell id="HpYjvm5Cg7NbYrYv6aXX-70" value="&lt;h1 style=&quot;margin-top: 0px;&quot;&gt;Programs&lt;/h1&gt;" style="text;html=1;whiteSpace=wrap;overflow=hidden;rounded=0;" parent="1" vertex="1">
          <mxGeometry x="10" y="840" width="130" height="50" as="geometry" />
        </mxCell>
        <mxCell id="HpYjvm5Cg7NbYrYv6aXX-71" value="" style="rounded=0;whiteSpace=wrap;html=1;" parent="1" vertex="1">
          <mxGeometry x="87.19" y="890" width="400" height="240" as="geometry" />
        </mxCell>
        <mxCell id="HpYjvm5Cg7NbYrYv6aXX-72" value="" style="shape=cylinder3;whiteSpace=wrap;html=1;boundedLbl=1;backgroundOutline=1;size=15;rotation=90;" parent="1" vertex="1">
          <mxGeometry x="364.38" y="855.63" width="35" height="113.75" as="geometry" />
        </mxCell>
        <mxCell id="HpYjvm5Cg7NbYrYv6aXX-73" value="" style="endArrow=none;html=1;rounded=0;" parent="1" edge="1">
          <mxGeometry width="50" height="50" relative="1" as="geometry">
            <mxPoint x="140" y="889.51" as="sourcePoint" />
            <mxPoint x="140" y="1129.51" as="targetPoint" />
          </mxGeometry>
        </mxCell>
        <mxCell id="HpYjvm5Cg7NbYrYv6aXX-74" value="" style="html=1;verticalLabelPosition=bottom;align=center;labelBackgroundColor=#ffffff;verticalAlign=top;strokeWidth=2;strokeColor=#0080F0;shadow=0;dashed=0;shape=mxgraph.ios7.icons.wifi;pointerEvents=1" parent="1" vertex="1">
          <mxGeometry x="450" y="897.51" width="29.7" height="21" as="geometry" />
        </mxCell>
        <mxCell id="HpYjvm5Cg7NbYrYv6aXX-75" value="" style="shape=cylinder3;whiteSpace=wrap;html=1;boundedLbl=1;backgroundOutline=1;size=15;rotation=90;" parent="1" vertex="1">
          <mxGeometry x="350" y="875" width="35" height="75" as="geometry" />
        </mxCell>
        <mxCell id="HpYjvm5Cg7NbYrYv6aXX-76" value="" style="shape=cylinder3;whiteSpace=wrap;html=1;boundedLbl=1;backgroundOutline=1;size=15;rotation=90;" parent="1" vertex="1">
          <mxGeometry x="330" y="890" width="35" height="45" as="geometry" />
        </mxCell>
        <mxCell id="HpYjvm5Cg7NbYrYv6aXX-77" value="" style="shape=cylinder3;whiteSpace=wrap;html=1;boundedLbl=1;backgroundOutline=1;size=15;rotation=90;" parent="1" vertex="1">
          <mxGeometry x="420" y="904.89" width="17.18" height="15.24" as="geometry" />
        </mxCell>
        <mxCell id="HpYjvm5Cg7NbYrYv6aXX-78" value="x %" style="text;html=1;align=center;verticalAlign=middle;whiteSpace=wrap;rounded=0;" parent="1" vertex="1">
          <mxGeometry x="270" y="897.51" width="60" height="30" as="geometry" />
        </mxCell>
        <mxCell id="HpYjvm5Cg7NbYrYv6aXX-79" value="" style="ellipse;whiteSpace=wrap;html=1;aspect=fixed;strokeWidth=6;" parent="1" vertex="1">
          <mxGeometry x="98.38" y="1089.51" width="32" height="32" as="geometry" />
        </mxCell>
        <mxCell id="HpYjvm5Cg7NbYrYv6aXX-80" value="" style="rounded=0;whiteSpace=wrap;html=1;rotation=90;strokeColor=none;" parent="1" vertex="1">
          <mxGeometry x="97.19" y="1085.3200000000002" width="34.38" height="20" as="geometry" />
        </mxCell>
        <mxCell id="HpYjvm5Cg7NbYrYv6aXX-81" value="" style="endArrow=none;html=1;rounded=0;strokeWidth=6;" parent="1" edge="1">
          <mxGeometry width="50" height="50" relative="1" as="geometry">
            <mxPoint x="114.88" y="1111.3200000000002" as="sourcePoint" />
            <mxPoint x="115" y="1081.51" as="targetPoint" />
            <Array as="points" />
          </mxGeometry>
        </mxCell>
        <mxCell id="HpYjvm5Cg7NbYrYv6aXX-82" value="" style="whiteSpace=wrap;html=1;aspect=fixed;" parent="1" vertex="1">
          <mxGeometry x="102.19" y="910.15" width="24.38" height="24.38" as="geometry" />
        </mxCell>
        <mxCell id="HpYjvm5Cg7NbYrYv6aXX-83" value="" style="triangle;whiteSpace=wrap;html=1;rotation=-90;" parent="1" vertex="1">
          <mxGeometry x="105.48000000000002" y="885.63" width="17.81" height="40" as="geometry" />
        </mxCell>
        <mxCell id="HpYjvm5Cg7NbYrYv6aXX-84" value="" style="endArrow=classic;html=1;rounded=0;" parent="1" edge="1">
          <mxGeometry width="50" height="50" relative="1" as="geometry">
            <mxPoint x="200" y="865.63" as="sourcePoint" />
            <mxPoint x="110" y="885.63" as="targetPoint" />
          </mxGeometry>
        </mxCell>
        <mxCell id="HpYjvm5Cg7NbYrYv6aXX-85" value="Home" style="text;html=1;align=center;verticalAlign=middle;resizable=0;points=[];autosize=1;strokeColor=none;fillColor=none;" parent="1" vertex="1">
          <mxGeometry x="190" y="853.63" width="60" height="30" as="geometry" />
        </mxCell>
        <mxCell id="HpYjvm5Cg7NbYrYv6aXX-94" value="" style="whiteSpace=wrap;html=1;aspect=fixed;fillColor=#666666;" parent="1" vertex="1">
          <mxGeometry x="95" y="1046.63" width="20" height="20" as="geometry" />
        </mxCell>
        <mxCell id="HpYjvm5Cg7NbYrYv6aXX-95" value="" style="whiteSpace=wrap;html=1;aspect=fixed;fillColor=#3399FF;" parent="1" vertex="1">
          <mxGeometry x="95" y="1026.63" width="20" height="20" as="geometry" />
        </mxCell>
        <mxCell id="HpYjvm5Cg7NbYrYv6aXX-96" value="" style="whiteSpace=wrap;html=1;aspect=fixed;fillColor=#3399FF;" parent="1" vertex="1">
          <mxGeometry x="115" y="1046.63" width="20" height="20" as="geometry" />
        </mxCell>
        <mxCell id="HpYjvm5Cg7NbYrYv6aXX-97" value="" style="whiteSpace=wrap;html=1;aspect=fixed;fillColor=#FF0000;" parent="1" vertex="1">
          <mxGeometry x="124.69999999999999" y="1026.63" width="10" height="10" as="geometry" />
        </mxCell>
        <mxCell id="HpYjvm5Cg7NbYrYv6aXX-98" value="" style="endArrow=classic;html=1;rounded=0;entryX=-0.01;entryY=0.671;entryDx=0;entryDy=0;entryPerimeter=0;" parent="1" target="HpYjvm5Cg7NbYrYv6aXX-3" edge="1">
          <mxGeometry width="50" height="50" relative="1" as="geometry">
            <mxPoint x="40" y="287.81" as="sourcePoint" />
            <mxPoint x="40" y="207.81" as="targetPoint" />
          </mxGeometry>
        </mxCell>
        <mxCell id="HpYjvm5Cg7NbYrYv6aXX-99" value="menu" style="text;html=1;align=center;verticalAlign=middle;resizable=0;points=[];autosize=1;strokeColor=none;fillColor=none;" parent="1" vertex="1">
          <mxGeometry x="25" y="290" width="50" height="30" as="geometry" />
        </mxCell>
        <mxCell id="HpYjvm5Cg7NbYrYv6aXX-101" value="" style="endArrow=classic;html=1;rounded=0;entryX=0;entryY=0.342;entryDx=0;entryDy=0;entryPerimeter=0;" parent="1" target="HpYjvm5Cg7NbYrYv6aXX-71" edge="1">
          <mxGeometry width="50" height="50" relative="1" as="geometry">
            <mxPoint x="40" y="1060" as="sourcePoint" />
            <mxPoint x="120" y="895.63" as="targetPoint" />
          </mxGeometry>
        </mxCell>
        <mxCell id="HpYjvm5Cg7NbYrYv6aXX-102" value="back" style="text;html=1;align=center;verticalAlign=middle;resizable=0;points=[];autosize=1;strokeColor=none;fillColor=none;" parent="1" vertex="1">
          <mxGeometry x="20" y="1059.51" width="50" height="30" as="geometry" />
        </mxCell>
        <mxCell id="HpYjvm5Cg7NbYrYv6aXX-116" value="" style="html=1;verticalLabelPosition=bottom;labelBackgroundColor=#ffffff;verticalAlign=top;shadow=0;dashed=0;strokeWidth=2;shape=mxgraph.ios7.misc.select;fillColor=#0080f0;strokeColor=#ffffff;sketch=0;" parent="1" vertex="1">
          <mxGeometry x="100" y="990" width="30" height="30" as="geometry" />
        </mxCell>
        <mxCell id="HpYjvm5Cg7NbYrYv6aXX-117" value="" style="endArrow=classic;html=1;rounded=0;entryX=0;entryY=0.342;entryDx=0;entryDy=0;entryPerimeter=0;" parent="1" edge="1">
          <mxGeometry width="50" height="50" relative="1" as="geometry">
            <mxPoint x="60" y="1130" as="sourcePoint" />
            <mxPoint x="90" y="997.32" as="targetPoint" />
          </mxGeometry>
        </mxCell>
        <mxCell id="HpYjvm5Cg7NbYrYv6aXX-118" value="save" style="text;html=1;align=center;verticalAlign=middle;resizable=0;points=[];autosize=1;strokeColor=none;fillColor=none;" parent="1" vertex="1">
          <mxGeometry x="35" y="1121.51" width="50" height="30" as="geometry" />
        </mxCell>
        <mxCell id="HpYjvm5Cg7NbYrYv6aXX-122" value="" style="endArrow=classic;html=1;rounded=0;" parent="1" edge="1">
          <mxGeometry width="50" height="50" relative="1" as="geometry">
            <mxPoint x="300" y="860" as="sourcePoint" />
            <mxPoint x="205" y="905.63" as="targetPoint" />
          </mxGeometry>
        </mxCell>
        <mxCell id="HpYjvm5Cg7NbYrYv6aXX-123" value="heating circle selector if &quot;switch&quot; on" style="text;html=1;align=center;verticalAlign=middle;resizable=0;points=[];autosize=1;strokeColor=none;fillColor=none;" parent="1" vertex="1">
          <mxGeometry x="215" y="838" width="210" height="30" as="geometry" />
        </mxCell>
        <mxCell id="HpYjvm5Cg7NbYrYv6aXX-124" value="&lt;h1 style=&quot;margin-top: 0px;&quot;&gt;settings&lt;/h1&gt;" style="text;html=1;whiteSpace=wrap;overflow=hidden;rounded=0;" parent="1" vertex="1">
          <mxGeometry x="1001" y="42.49000000000001" width="130" height="50" as="geometry" />
        </mxCell>
        <mxCell id="HpYjvm5Cg7NbYrYv6aXX-125" value="" style="rounded=0;whiteSpace=wrap;html=1;" parent="1" vertex="1">
          <mxGeometry x="1081" y="92.49000000000001" width="400" height="240" as="geometry" />
        </mxCell>
        <mxCell id="HpYjvm5Cg7NbYrYv6aXX-126" value="" style="shape=cylinder3;whiteSpace=wrap;html=1;boundedLbl=1;backgroundOutline=1;size=15;rotation=90;" parent="1" vertex="1">
          <mxGeometry x="1355.38" y="58.120000000000005" width="35" height="113.75" as="geometry" />
        </mxCell>
        <mxCell id="HpYjvm5Cg7NbYrYv6aXX-127" value="" style="endArrow=none;html=1;rounded=0;" parent="1" edge="1">
          <mxGeometry width="50" height="50" relative="1" as="geometry">
            <mxPoint x="1131" y="92" as="sourcePoint" />
            <mxPoint x="1131" y="332" as="targetPoint" />
          </mxGeometry>
        </mxCell>
        <mxCell id="HpYjvm5Cg7NbYrYv6aXX-128" value="" style="html=1;verticalLabelPosition=bottom;align=center;labelBackgroundColor=#ffffff;verticalAlign=top;strokeWidth=2;strokeColor=#0080F0;shadow=0;dashed=0;shape=mxgraph.ios7.icons.wifi;pointerEvents=1" parent="1" vertex="1">
          <mxGeometry x="1441" y="100" width="29.7" height="21" as="geometry" />
        </mxCell>
        <mxCell id="HpYjvm5Cg7NbYrYv6aXX-129" value="" style="shape=cylinder3;whiteSpace=wrap;html=1;boundedLbl=1;backgroundOutline=1;size=15;rotation=90;" parent="1" vertex="1">
          <mxGeometry x="1341" y="77.49000000000001" width="35" height="75" as="geometry" />
        </mxCell>
        <mxCell id="HpYjvm5Cg7NbYrYv6aXX-130" value="" style="shape=cylinder3;whiteSpace=wrap;html=1;boundedLbl=1;backgroundOutline=1;size=15;rotation=90;" parent="1" vertex="1">
          <mxGeometry x="1321" y="92.49000000000001" width="35" height="45" as="geometry" />
        </mxCell>
        <mxCell id="HpYjvm5Cg7NbYrYv6aXX-131" value="" style="shape=cylinder3;whiteSpace=wrap;html=1;boundedLbl=1;backgroundOutline=1;size=15;rotation=90;" parent="1" vertex="1">
          <mxGeometry x="1411" y="107.38" width="17.18" height="15.24" as="geometry" />
        </mxCell>
        <mxCell id="HpYjvm5Cg7NbYrYv6aXX-132" value="x %" style="text;html=1;align=center;verticalAlign=middle;whiteSpace=wrap;rounded=0;" parent="1" vertex="1">
          <mxGeometry x="1261" y="100" width="60" height="30" as="geometry" />
        </mxCell>
        <mxCell id="HpYjvm5Cg7NbYrYv6aXX-133" value="" style="ellipse;whiteSpace=wrap;html=1;aspect=fixed;strokeWidth=6;" parent="1" vertex="1">
          <mxGeometry x="1089.38" y="292" width="32" height="32" as="geometry" />
        </mxCell>
        <mxCell id="HpYjvm5Cg7NbYrYv6aXX-134" value="" style="rounded=0;whiteSpace=wrap;html=1;rotation=90;strokeColor=none;" parent="1" vertex="1">
          <mxGeometry x="1088.19" y="287.81000000000006" width="34.38" height="20" as="geometry" />
        </mxCell>
        <mxCell id="HpYjvm5Cg7NbYrYv6aXX-135" value="" style="endArrow=none;html=1;rounded=0;strokeWidth=6;" parent="1" edge="1">
          <mxGeometry width="50" height="50" relative="1" as="geometry">
            <mxPoint x="1105.88" y="313.81000000000006" as="sourcePoint" />
            <mxPoint x="1106" y="284" as="targetPoint" />
            <Array as="points" />
          </mxGeometry>
        </mxCell>
        <mxCell id="HpYjvm5Cg7NbYrYv6aXX-136" value="" style="whiteSpace=wrap;html=1;aspect=fixed;" parent="1" vertex="1">
          <mxGeometry x="1093.19" y="112.63999999999999" width="24.38" height="24.38" as="geometry" />
        </mxCell>
        <mxCell id="HpYjvm5Cg7NbYrYv6aXX-137" value="" style="triangle;whiteSpace=wrap;html=1;rotation=-90;" parent="1" vertex="1">
          <mxGeometry x="1096.48" y="88.12" width="17.81" height="40" as="geometry" />
        </mxCell>
        <mxCell id="HpYjvm5Cg7NbYrYv6aXX-138" value="" style="endArrow=classic;html=1;rounded=0;" parent="1" edge="1">
          <mxGeometry width="50" height="50" relative="1" as="geometry">
            <mxPoint x="1191" y="68.12" as="sourcePoint" />
            <mxPoint x="1101" y="88.12" as="targetPoint" />
          </mxGeometry>
        </mxCell>
        <mxCell id="HpYjvm5Cg7NbYrYv6aXX-139" value="Home" style="text;html=1;align=center;verticalAlign=middle;resizable=0;points=[];autosize=1;strokeColor=none;fillColor=none;" parent="1" vertex="1">
          <mxGeometry x="1181" y="56.120000000000005" width="60" height="30" as="geometry" />
        </mxCell>
        <mxCell id="HpYjvm5Cg7NbYrYv6aXX-148" value="" style="whiteSpace=wrap;html=1;aspect=fixed;fillColor=#666666;" parent="1" vertex="1">
          <mxGeometry x="1086" y="249.12" width="20" height="20" as="geometry" />
        </mxCell>
        <mxCell id="HpYjvm5Cg7NbYrYv6aXX-149" value="" style="whiteSpace=wrap;html=1;aspect=fixed;fillColor=#3399FF;" parent="1" vertex="1">
          <mxGeometry x="1086" y="229.12" width="20" height="20" as="geometry" />
        </mxCell>
        <mxCell id="HpYjvm5Cg7NbYrYv6aXX-150" value="" style="whiteSpace=wrap;html=1;aspect=fixed;fillColor=#3399FF;" parent="1" vertex="1">
          <mxGeometry x="1106" y="249.12" width="20" height="20" as="geometry" />
        </mxCell>
        <mxCell id="HpYjvm5Cg7NbYrYv6aXX-151" value="" style="whiteSpace=wrap;html=1;aspect=fixed;fillColor=#FF0000;" parent="1" vertex="1">
          <mxGeometry x="1115.7" y="229.12" width="10" height="10" as="geometry" />
        </mxCell>
        <mxCell id="HpYjvm5Cg7NbYrYv6aXX-100" value="" style="endArrow=classic;html=1;rounded=0;strokeWidth=3;" parent="1" edge="1">
          <mxGeometry width="50" height="50" relative="1" as="geometry">
            <mxPoint x="1110" y="178.61" as="sourcePoint" />
            <mxPoint x="1089.38" y="158.12" as="targetPoint" />
            <Array as="points">
              <mxPoint x="1119.38" y="158.24" />
            </Array>
          </mxGeometry>
        </mxCell>
        <mxCell id="HpYjvm5Cg7NbYrYv6aXX-156" value="Modbus" style="rounded=1;whiteSpace=wrap;html=1;" parent="1" vertex="1">
          <mxGeometry x="1206" y="361.12" width="170" height="40" as="geometry" />
        </mxCell>
        <mxCell id="HpYjvm5Cg7NbYrYv6aXX-157" value="Device" style="rounded=1;whiteSpace=wrap;html=1;" parent="1" vertex="1">
          <mxGeometry x="1207" y="413.75" width="170" height="40" as="geometry" />
        </mxCell>
        <mxCell id="HpYjvm5Cg7NbYrYv6aXX-158" value="HardReset" style="rounded=1;whiteSpace=wrap;html=1;" parent="1" vertex="1">
          <mxGeometry x="1207" y="470.62" width="170" height="40" as="geometry" />
        </mxCell>
        <mxCell id="HpYjvm5Cg7NbYrYv6aXX-159" value="&quot;SerialTask&quot;" style="rounded=1;whiteSpace=wrap;html=1;" parent="1" vertex="1">
          <mxGeometry x="1207" y="524.75" width="170" height="40" as="geometry" />
        </mxCell>
        <mxCell id="HpYjvm5Cg7NbYrYv6aXX-162" value="" style="rounded=1;whiteSpace=wrap;html=1;" parent="1" vertex="1">
          <mxGeometry x="1141" y="137.01999999999998" width="330" height="191.88" as="geometry" />
        </mxCell>
        <mxCell id="HpYjvm5Cg7NbYrYv6aXX-152" value="Sensor" style="rounded=1;whiteSpace=wrap;html=1;" parent="1" vertex="1">
          <mxGeometry x="1207" y="158.12" width="170" height="40" as="geometry" />
        </mxCell>
        <mxCell id="HpYjvm5Cg7NbYrYv6aXX-153" value="Time" style="rounded=1;whiteSpace=wrap;html=1;" parent="1" vertex="1">
          <mxGeometry x="1207" y="203.75" width="170" height="40" as="geometry" />
        </mxCell>
        <mxCell id="HpYjvm5Cg7NbYrYv6aXX-154" value="Heating" style="rounded=1;whiteSpace=wrap;html=1;" parent="1" vertex="1">
          <mxGeometry x="1207" y="256.92999999999995" width="170" height="40" as="geometry" />
        </mxCell>
        <mxCell id="HpYjvm5Cg7NbYrYv6aXX-155" value="Wifi" style="rounded=1;whiteSpace=wrap;html=1;" parent="1" vertex="1">
          <mxGeometry x="1207" y="307.81000000000006" width="170" height="40" as="geometry" />
        </mxCell>
        <mxCell id="HpYjvm5Cg7NbYrYv6aXX-160" value="" style="endArrow=none;html=1;rounded=0;strokeWidth=2;" parent="1" edge="1">
          <mxGeometry width="50" height="50" relative="1" as="geometry">
            <mxPoint x="1419.09" y="299.12" as="sourcePoint" />
            <mxPoint x="1419.09" y="169.12" as="targetPoint" />
          </mxGeometry>
        </mxCell>
        <mxCell id="HpYjvm5Cg7NbYrYv6aXX-161" value="" style="endArrow=none;html=1;rounded=0;strokeWidth=7;strokeColor=#33FFFF;" parent="1" edge="1">
          <mxGeometry width="50" height="50" relative="1" as="geometry">
            <mxPoint x="1419.0900000000001" y="239.12" as="sourcePoint" />
            <mxPoint x="1419.0900000000001" y="179.12" as="targetPoint" />
          </mxGeometry>
        </mxCell>
        <mxCell id="HpYjvm5Cg7NbYrYv6aXX-163" value="&lt;h1 style=&quot;margin-top: 0px;&quot;&gt;Connected device&lt;/h1&gt;" style="text;html=1;whiteSpace=wrap;overflow=hidden;rounded=0;" parent="1" vertex="1">
          <mxGeometry x="1001" y="554.7499999999999" width="130" height="69.74" as="geometry" />
        </mxCell>
        <mxCell id="HpYjvm5Cg7NbYrYv6aXX-164" value="" style="rounded=0;whiteSpace=wrap;html=1;" parent="1" vertex="1">
          <mxGeometry x="1081" y="614.7500000000001" width="400" height="240" as="geometry" />
        </mxCell>
        <mxCell id="HpYjvm5Cg7NbYrYv6aXX-165" value="" style="shape=cylinder3;whiteSpace=wrap;html=1;boundedLbl=1;backgroundOutline=1;size=15;rotation=90;" parent="1" vertex="1">
          <mxGeometry x="1355.38" y="580.38" width="35" height="113.75" as="geometry" />
        </mxCell>
        <mxCell id="HpYjvm5Cg7NbYrYv6aXX-166" value="" style="endArrow=none;html=1;rounded=0;" parent="1" edge="1">
          <mxGeometry width="50" height="50" relative="1" as="geometry">
            <mxPoint x="1131" y="614.2599999999999" as="sourcePoint" />
            <mxPoint x="1131" y="854.2599999999999" as="targetPoint" />
          </mxGeometry>
        </mxCell>
        <mxCell id="HpYjvm5Cg7NbYrYv6aXX-167" value="" style="html=1;verticalLabelPosition=bottom;align=center;labelBackgroundColor=#ffffff;verticalAlign=top;strokeWidth=2;strokeColor=#0080F0;shadow=0;dashed=0;shape=mxgraph.ios7.icons.wifi;pointerEvents=1" parent="1" vertex="1">
          <mxGeometry x="1441" y="622.2599999999999" width="29.7" height="21" as="geometry" />
        </mxCell>
        <mxCell id="HpYjvm5Cg7NbYrYv6aXX-168" value="" style="shape=cylinder3;whiteSpace=wrap;html=1;boundedLbl=1;backgroundOutline=1;size=15;rotation=90;" parent="1" vertex="1">
          <mxGeometry x="1341" y="599.7500000000001" width="35" height="75" as="geometry" />
        </mxCell>
        <mxCell id="HpYjvm5Cg7NbYrYv6aXX-169" value="" style="shape=cylinder3;whiteSpace=wrap;html=1;boundedLbl=1;backgroundOutline=1;size=15;rotation=90;" parent="1" vertex="1">
          <mxGeometry x="1321" y="614.7500000000001" width="35" height="45" as="geometry" />
        </mxCell>
        <mxCell id="HpYjvm5Cg7NbYrYv6aXX-170" value="" style="shape=cylinder3;whiteSpace=wrap;html=1;boundedLbl=1;backgroundOutline=1;size=15;rotation=90;" parent="1" vertex="1">
          <mxGeometry x="1411" y="629.64" width="17.18" height="15.24" as="geometry" />
        </mxCell>
        <mxCell id="HpYjvm5Cg7NbYrYv6aXX-171" value="x %" style="text;html=1;align=center;verticalAlign=middle;whiteSpace=wrap;rounded=0;" parent="1" vertex="1">
          <mxGeometry x="1261" y="622.2599999999999" width="60" height="30" as="geometry" />
        </mxCell>
        <mxCell id="HpYjvm5Cg7NbYrYv6aXX-172" value="" style="ellipse;whiteSpace=wrap;html=1;aspect=fixed;strokeWidth=6;" parent="1" vertex="1">
          <mxGeometry x="1089.38" y="814.2599999999999" width="32" height="32" as="geometry" />
        </mxCell>
        <mxCell id="HpYjvm5Cg7NbYrYv6aXX-173" value="" style="rounded=0;whiteSpace=wrap;html=1;rotation=90;strokeColor=none;" parent="1" vertex="1">
          <mxGeometry x="1088.19" y="810.07" width="34.38" height="20" as="geometry" />
        </mxCell>
        <mxCell id="HpYjvm5Cg7NbYrYv6aXX-174" value="" style="endArrow=none;html=1;rounded=0;strokeWidth=6;" parent="1" edge="1">
          <mxGeometry width="50" height="50" relative="1" as="geometry">
            <mxPoint x="1105.88" y="836.07" as="sourcePoint" />
            <mxPoint x="1106" y="806.2599999999999" as="targetPoint" />
            <Array as="points" />
          </mxGeometry>
        </mxCell>
        <mxCell id="HpYjvm5Cg7NbYrYv6aXX-175" value="" style="whiteSpace=wrap;html=1;aspect=fixed;" parent="1" vertex="1">
          <mxGeometry x="1093.19" y="634.9" width="24.38" height="24.38" as="geometry" />
        </mxCell>
        <mxCell id="HpYjvm5Cg7NbYrYv6aXX-176" value="" style="triangle;whiteSpace=wrap;html=1;rotation=-90;" parent="1" vertex="1">
          <mxGeometry x="1096.48" y="610.38" width="17.81" height="40" as="geometry" />
        </mxCell>
        <mxCell id="HpYjvm5Cg7NbYrYv6aXX-177" value="" style="endArrow=classic;html=1;rounded=0;" parent="1" edge="1">
          <mxGeometry width="50" height="50" relative="1" as="geometry">
            <mxPoint x="1191" y="590.38" as="sourcePoint" />
            <mxPoint x="1101" y="610.38" as="targetPoint" />
          </mxGeometry>
        </mxCell>
        <mxCell id="HpYjvm5Cg7NbYrYv6aXX-178" value="Home" style="text;html=1;align=center;verticalAlign=middle;resizable=0;points=[];autosize=1;strokeColor=none;fillColor=none;" parent="1" vertex="1">
          <mxGeometry x="1181" y="578.38" width="60" height="30" as="geometry" />
        </mxCell>
        <mxCell id="HpYjvm5Cg7NbYrYv6aXX-179" value="" style="whiteSpace=wrap;html=1;aspect=fixed;fillColor=#666666;strokeColor=#666666;" parent="1" vertex="1">
          <mxGeometry x="1086" y="771.38" width="20" height="20" as="geometry" />
        </mxCell>
        <mxCell id="HpYjvm5Cg7NbYrYv6aXX-180" value="" style="whiteSpace=wrap;html=1;aspect=fixed;fillColor=#3399FF;strokeColor=#3399FF;" parent="1" vertex="1">
          <mxGeometry x="1086" y="751.38" width="20" height="20" as="geometry" />
        </mxCell>
        <mxCell id="HpYjvm5Cg7NbYrYv6aXX-181" value="" style="whiteSpace=wrap;html=1;aspect=fixed;fillColor=#3399FF;strokeColor=#3399FF;" parent="1" vertex="1">
          <mxGeometry x="1106" y="771.38" width="20" height="20" as="geometry" />
        </mxCell>
        <mxCell id="HpYjvm5Cg7NbYrYv6aXX-182" value="" style="whiteSpace=wrap;html=1;aspect=fixed;fillColor=#FF0000;strokeColor=#FF0000;" parent="1" vertex="1">
          <mxGeometry x="1110" y="751.38" width="15.7" height="15.7" as="geometry" />
        </mxCell>
        <mxCell id="HpYjvm5Cg7NbYrYv6aXX-183" value="" style="endArrow=classic;html=1;rounded=0;strokeWidth=3;" parent="1" edge="1">
          <mxGeometry width="50" height="50" relative="1" as="geometry">
            <mxPoint x="1111" y="701.49" as="sourcePoint" />
            <mxPoint x="1090.38" y="681" as="targetPoint" />
            <Array as="points">
              <mxPoint x="1120.38" y="681.1200000000001" />
            </Array>
          </mxGeometry>
        </mxCell>
        <mxCell id="HpYjvm5Cg7NbYrYv6aXX-188" value="" style="rounded=1;whiteSpace=wrap;html=1;" parent="1" vertex="1">
          <mxGeometry x="1141" y="659.2799999999999" width="330" height="191.88" as="geometry" />
        </mxCell>
        <mxCell id="HpYjvm5Cg7NbYrYv6aXX-189" value="device 1" style="rounded=1;whiteSpace=wrap;html=1;" parent="1" vertex="1">
          <mxGeometry x="1207" y="680.38" width="170" height="40" as="geometry" />
        </mxCell>
        <mxCell id="HpYjvm5Cg7NbYrYv6aXX-190" value="device x" style="rounded=1;whiteSpace=wrap;html=1;" parent="1" vertex="1">
          <mxGeometry x="1207" y="726.0099999999999" width="170" height="40" as="geometry" />
        </mxCell>
        <mxCell id="HpYjvm5Cg7NbYrYv6aXX-191" value="device y" style="rounded=1;whiteSpace=wrap;html=1;" parent="1" vertex="1">
          <mxGeometry x="1207" y="774.2599999999999" width="170" height="40" as="geometry" />
        </mxCell>
        <mxCell id="HpYjvm5Cg7NbYrYv6aXX-192" value="device z" style="rounded=1;whiteSpace=wrap;html=1;" parent="1" vertex="1">
          <mxGeometry x="1207" y="830.07" width="170" height="40" as="geometry" />
        </mxCell>
        <mxCell id="HpYjvm5Cg7NbYrYv6aXX-193" value="" style="endArrow=none;html=1;rounded=0;strokeWidth=2;" parent="1" edge="1">
          <mxGeometry width="50" height="50" relative="1" as="geometry">
            <mxPoint x="1419.09" y="821.38" as="sourcePoint" />
            <mxPoint x="1419.09" y="691.38" as="targetPoint" />
          </mxGeometry>
        </mxCell>
        <mxCell id="HpYjvm5Cg7NbYrYv6aXX-194" value="" style="endArrow=none;html=1;rounded=0;strokeWidth=7;strokeColor=#33FFFF;" parent="1" edge="1">
          <mxGeometry width="50" height="50" relative="1" as="geometry">
            <mxPoint x="1419.0900000000001" y="761.38" as="sourcePoint" />
            <mxPoint x="1419.0900000000001" y="701.38" as="targetPoint" />
          </mxGeometry>
        </mxCell>
        <mxCell id="HpYjvm5Cg7NbYrYv6aXX-195" value="" style="endArrow=none;dashed=1;html=1;dashPattern=1 3;strokeWidth=5;rounded=0;" parent="1" edge="1">
          <mxGeometry width="50" height="50" relative="1" as="geometry">
            <mxPoint x="1305.5" y="938.12" as="sourcePoint" />
            <mxPoint x="1305.5" y="878.12" as="targetPoint" />
          </mxGeometry>
        </mxCell>
        <mxCell id="HpYjvm5Cg7NbYrYv6aXX-229" value="" style="html=1;verticalLabelPosition=bottom;labelBackgroundColor=#ffffff;verticalAlign=top;shadow=0;dashed=0;strokeWidth=5;shape=mxgraph.ios7.misc.left;strokeColor=#0080f0;rotation=-180;" parent="1" vertex="1">
          <mxGeometry x="394" y="220" width="20" height="30" as="geometry" />
        </mxCell>
        <mxCell id="HpYjvm5Cg7NbYrYv6aXX-230" value="page" style="text;html=1;align=center;verticalAlign=middle;resizable=0;points=[];autosize=1;strokeColor=none;fillColor=none;" parent="1" vertex="1">
          <mxGeometry x="295" y="220" width="50" height="30" as="geometry" />
        </mxCell>
        <mxCell id="HpYjvm5Cg7NbYrYv6aXX-231" value="" style="html=1;verticalLabelPosition=bottom;labelBackgroundColor=#ffffff;verticalAlign=top;shadow=0;dashed=0;strokeWidth=5;shape=mxgraph.ios7.misc.left;strokeColor=#0080f0;" parent="1" vertex="1">
          <mxGeometry x="233.5" y="219.99999999999994" width="20" height="30" as="geometry" />
        </mxCell>
        <mxCell id="HpYjvm5Cg7NbYrYv6aXX-233" value="" style="endArrow=classic;html=1;rounded=0;strokeWidth=3;" parent="1" edge="1">
          <mxGeometry width="50" height="50" relative="1" as="geometry">
            <mxPoint x="117.81000000000006" y="980" as="sourcePoint" />
            <mxPoint x="97.19000000000017" y="959.51" as="targetPoint" />
            <Array as="points">
              <mxPoint x="127.19000000000017" y="959.6300000000001" />
            </Array>
          </mxGeometry>
        </mxCell>
        <mxCell id="lbCmWKpmU1EXgJwsmiEB-1" value="&lt;h1 style=&quot;margin-top: 0px;&quot;&gt;parameter setting template&lt;/h1&gt;" style="text;html=1;whiteSpace=wrap;overflow=hidden;rounded=0;" parent="1" vertex="1">
          <mxGeometry x="1600" y="22.490000000000002" width="207.81" height="70" as="geometry" />
        </mxCell>
        <mxCell id="lbCmWKpmU1EXgJwsmiEB-2" value="" style="rounded=0;whiteSpace=wrap;html=1;" parent="1" vertex="1">
          <mxGeometry x="1720" y="112.68" width="400" height="240" as="geometry" />
        </mxCell>
        <mxCell id="lbCmWKpmU1EXgJwsmiEB-3" value="" style="shape=cylinder3;whiteSpace=wrap;html=1;boundedLbl=1;backgroundOutline=1;size=15;rotation=90;" parent="1" vertex="1">
          <mxGeometry x="1994.38" y="78.31" width="35" height="113.75" as="geometry" />
        </mxCell>
        <mxCell id="lbCmWKpmU1EXgJwsmiEB-4" value="" style="endArrow=none;html=1;rounded=0;" parent="1" edge="1">
          <mxGeometry width="50" height="50" relative="1" as="geometry">
            <mxPoint x="1770" y="112.19" as="sourcePoint" />
            <mxPoint x="1770" y="352.19" as="targetPoint" />
          </mxGeometry>
        </mxCell>
        <mxCell id="lbCmWKpmU1EXgJwsmiEB-5" value="" style="html=1;verticalLabelPosition=bottom;align=center;labelBackgroundColor=#ffffff;verticalAlign=top;strokeWidth=2;strokeColor=#0080F0;shadow=0;dashed=0;shape=mxgraph.ios7.icons.wifi;pointerEvents=1" parent="1" vertex="1">
          <mxGeometry x="2080" y="120.19" width="29.7" height="21" as="geometry" />
        </mxCell>
        <mxCell id="lbCmWKpmU1EXgJwsmiEB-6" value="" style="shape=cylinder3;whiteSpace=wrap;html=1;boundedLbl=1;backgroundOutline=1;size=15;rotation=90;" parent="1" vertex="1">
          <mxGeometry x="1980" y="97.68" width="35" height="75" as="geometry" />
        </mxCell>
        <mxCell id="lbCmWKpmU1EXgJwsmiEB-7" value="" style="shape=cylinder3;whiteSpace=wrap;html=1;boundedLbl=1;backgroundOutline=1;size=15;rotation=90;" parent="1" vertex="1">
          <mxGeometry x="1960" y="112.68" width="35" height="45" as="geometry" />
        </mxCell>
        <mxCell id="lbCmWKpmU1EXgJwsmiEB-8" value="" style="shape=cylinder3;whiteSpace=wrap;html=1;boundedLbl=1;backgroundOutline=1;size=15;rotation=90;" parent="1" vertex="1">
          <mxGeometry x="2050" y="127.57" width="17.18" height="15.24" as="geometry" />
        </mxCell>
        <mxCell id="lbCmWKpmU1EXgJwsmiEB-9" value="x %" style="text;html=1;align=center;verticalAlign=middle;whiteSpace=wrap;rounded=0;" parent="1" vertex="1">
          <mxGeometry x="1900" y="120.19" width="60" height="30" as="geometry" />
        </mxCell>
        <mxCell id="lbCmWKpmU1EXgJwsmiEB-10" value="" style="ellipse;whiteSpace=wrap;html=1;aspect=fixed;strokeWidth=6;" parent="1" vertex="1">
          <mxGeometry x="1728.38" y="312.19" width="32" height="32" as="geometry" />
        </mxCell>
        <mxCell id="lbCmWKpmU1EXgJwsmiEB-11" value="" style="rounded=0;whiteSpace=wrap;html=1;rotation=90;strokeColor=none;" parent="1" vertex="1">
          <mxGeometry x="1727.19" y="308.00000000000006" width="34.38" height="20" as="geometry" />
        </mxCell>
        <mxCell id="lbCmWKpmU1EXgJwsmiEB-12" value="" style="endArrow=none;html=1;rounded=0;strokeWidth=6;" parent="1" edge="1">
          <mxGeometry width="50" height="50" relative="1" as="geometry">
            <mxPoint x="1744.88" y="334.00000000000006" as="sourcePoint" />
            <mxPoint x="1745" y="304.19" as="targetPoint" />
            <Array as="points" />
          </mxGeometry>
        </mxCell>
        <mxCell id="lbCmWKpmU1EXgJwsmiEB-13" value="" style="whiteSpace=wrap;html=1;aspect=fixed;" parent="1" vertex="1">
          <mxGeometry x="1732.19" y="132.82999999999998" width="24.38" height="24.38" as="geometry" />
        </mxCell>
        <mxCell id="lbCmWKpmU1EXgJwsmiEB-14" value="" style="triangle;whiteSpace=wrap;html=1;rotation=-90;" parent="1" vertex="1">
          <mxGeometry x="1735.48" y="108.31" width="17.81" height="40" as="geometry" />
        </mxCell>
        <mxCell id="lbCmWKpmU1EXgJwsmiEB-15" value="" style="endArrow=classic;html=1;rounded=0;" parent="1" edge="1">
          <mxGeometry width="50" height="50" relative="1" as="geometry">
            <mxPoint x="1830" y="88.31" as="sourcePoint" />
            <mxPoint x="1740" y="108.31" as="targetPoint" />
          </mxGeometry>
        </mxCell>
        <mxCell id="lbCmWKpmU1EXgJwsmiEB-16" value="Home" style="text;html=1;align=center;verticalAlign=middle;resizable=0;points=[];autosize=1;strokeColor=none;fillColor=none;" parent="1" vertex="1">
          <mxGeometry x="1820" y="76.31" width="60" height="30" as="geometry" />
        </mxCell>
        <mxCell id="lbCmWKpmU1EXgJwsmiEB-17" value="" style="whiteSpace=wrap;html=1;aspect=fixed;fillColor=#666666;" parent="1" vertex="1">
          <mxGeometry x="1725" y="269.31" width="20" height="20" as="geometry" />
        </mxCell>
        <mxCell id="lbCmWKpmU1EXgJwsmiEB-18" value="" style="whiteSpace=wrap;html=1;aspect=fixed;fillColor=#3399FF;" parent="1" vertex="1">
          <mxGeometry x="1725" y="249.31" width="20" height="20" as="geometry" />
        </mxCell>
        <mxCell id="lbCmWKpmU1EXgJwsmiEB-19" value="" style="whiteSpace=wrap;html=1;aspect=fixed;fillColor=#3399FF;" parent="1" vertex="1">
          <mxGeometry x="1745" y="269.31" width="20" height="20" as="geometry" />
        </mxCell>
        <mxCell id="lbCmWKpmU1EXgJwsmiEB-20" value="" style="whiteSpace=wrap;html=1;aspect=fixed;fillColor=#FF0000;" parent="1" vertex="1">
          <mxGeometry x="1754.7" y="249.31" width="10" height="10" as="geometry" />
        </mxCell>
        <mxCell id="lbCmWKpmU1EXgJwsmiEB-21" value="" style="endArrow=classic;html=1;rounded=0;strokeWidth=3;" parent="1" edge="1">
          <mxGeometry width="50" height="50" relative="1" as="geometry">
            <mxPoint x="1749" y="198.8" as="sourcePoint" />
            <mxPoint x="1728.38" y="178.31" as="targetPoint" />
            <Array as="points">
              <mxPoint x="1758.38" y="178.43" />
            </Array>
          </mxGeometry>
        </mxCell>
        <mxCell id="lbCmWKpmU1EXgJwsmiEB-22" value="" style="rounded=1;whiteSpace=wrap;html=1;" parent="1" vertex="1">
          <mxGeometry x="1780" y="157.20999999999998" width="330" height="191.88" as="geometry" />
        </mxCell>
        <mxCell id="lbCmWKpmU1EXgJwsmiEB-27" value="" style="endArrow=none;html=1;rounded=0;strokeWidth=2;" parent="1" edge="1">
          <mxGeometry width="50" height="50" relative="1" as="geometry">
            <mxPoint x="2058.09" y="319.31" as="sourcePoint" />
            <mxPoint x="2058.09" y="189.31" as="targetPoint" />
          </mxGeometry>
        </mxCell>
        <mxCell id="lbCmWKpmU1EXgJwsmiEB-28" value="" style="endArrow=none;html=1;rounded=0;strokeWidth=7;strokeColor=#33FFFF;" parent="1" edge="1">
          <mxGeometry width="50" height="50" relative="1" as="geometry">
            <mxPoint x="2058.09" y="259.31" as="sourcePoint" />
            <mxPoint x="2058.09" y="199.31" as="targetPoint" />
          </mxGeometry>
        </mxCell>
        <mxCell id="lbCmWKpmU1EXgJwsmiEB-29" value="parameter : 17 °C" style="text;html=1;align=center;verticalAlign=middle;whiteSpace=wrap;rounded=0;" parent="1" vertex="1">
          <mxGeometry x="1800" y="190" width="110" height="30" as="geometry" />
        </mxCell>
        <mxCell id="lbCmWKpmU1EXgJwsmiEB-30" value="" style="rounded=0;whiteSpace=wrap;html=1;" parent="1" vertex="1">
          <mxGeometry x="1910" y="195" width="120" height="20" as="geometry" />
        </mxCell>
        <mxCell id="b6hRnU-GCGQrzbsoPXIs-8" value="" style="rounded=1;whiteSpace=wrap;html=1;" parent="1" vertex="1">
          <mxGeometry x="140" y="611.82" width="330" height="184.06" as="geometry" />
        </mxCell>
        <mxCell id="lbCmWKpmU1EXgJwsmiEB-31" value="type" style="text;html=1;align=center;verticalAlign=middle;whiteSpace=wrap;rounded=0;" parent="1" vertex="1">
          <mxGeometry x="1910" y="195" width="60" height="20" as="geometry" />
        </mxCell>
        <mxCell id="lbCmWKpmU1EXgJwsmiEB-32" value="" style="html=1;verticalLabelPosition=bottom;labelBackgroundColor=#ffffff;verticalAlign=top;shadow=0;dashed=0;strokeWidth=2;shape=mxgraph.ios7.misc.select;fillColor=#0080f0;strokeColor=#ffffff;sketch=0;" parent="1" vertex="1">
          <mxGeometry x="1731.57" y="207.80999999999995" width="30" height="30" as="geometry" />
        </mxCell>
        <mxCell id="lbCmWKpmU1EXgJwsmiEB-33" value="keyboard if type area touched&lt;div&gt;if not keyboard or type area touched hide keyboard!&lt;/div&gt;&lt;div&gt;only then if input can be a char_list&lt;/div&gt;" style="rounded=0;whiteSpace=wrap;html=1;" parent="1" vertex="1">
          <mxGeometry x="1770" y="230" width="350" height="122.68" as="geometry" />
        </mxCell>
        <mxCell id="lbCmWKpmU1EXgJwsmiEB-34" value="" style="endArrow=classic;html=1;rounded=0;" parent="1" edge="1">
          <mxGeometry width="50" height="50" relative="1" as="geometry">
            <mxPoint x="1390.38" y="180" as="sourcePoint" />
            <mxPoint x="1710.38" y="180" as="targetPoint" />
          </mxGeometry>
        </mxCell>
        <mxCell id="b6hRnU-GCGQrzbsoPXIs-4" value="" style="outlineConnect=0;dashed=0;verticalLabelPosition=bottom;verticalAlign=top;align=center;html=1;shape=mxgraph.aws3.internet_2;fillColor=#D2D3D3;gradientColor=none;" parent="1" vertex="1">
          <mxGeometry x="179.23000000000002" y="741" width="51.51" height="50" as="geometry" />
        </mxCell>
        <mxCell id="b6hRnU-GCGQrzbsoPXIs-5" value="" style="endArrow=classic;html=1;rounded=0;" parent="1" edge="1">
          <mxGeometry width="50" height="50" relative="1" as="geometry">
            <mxPoint x="613.5" y="746.38" as="sourcePoint" />
            <mxPoint x="233.5" y="776.38" as="targetPoint" />
          </mxGeometry>
        </mxCell>
        <mxCell id="b6hRnU-GCGQrzbsoPXIs-6" value="" style="endArrow=none;html=1;rounded=0;strokeWidth=2;" parent="1" edge="1">
          <mxGeometry width="50" height="50" relative="1" as="geometry">
            <mxPoint x="449.9999999999999" y="779.69" as="sourcePoint" />
            <mxPoint x="449.9999999999999" y="649.69" as="targetPoint" />
          </mxGeometry>
        </mxCell>
        <mxCell id="b6hRnU-GCGQrzbsoPXIs-7" value="" style="endArrow=none;html=1;rounded=0;strokeWidth=7;strokeColor=#33FFFF;" parent="1" edge="1">
          <mxGeometry width="50" height="50" relative="1" as="geometry">
            <mxPoint x="450.0000000000001" y="719.69" as="sourcePoint" />
            <mxPoint x="450.0000000000001" y="659.69" as="targetPoint" />
          </mxGeometry>
        </mxCell>
        <mxCell id="HpYjvm5Cg7NbYrYv6aXX-53" value="" style="sketch=0;points=[[0,0,0],[0.25,0,0],[0.5,0,0],[0.75,0,0],[1,0,0],[0,1,0],[0.25,1,0],[0.5,1,0],[0.75,1,0],[1,1,0],[0,0.25,0],[0,0.5,0],[0,0.75,0],[1,0.25,0],[1,0.5,0],[1,0.75,0]];outlineConnect=0;fontColor=#232F3E;fillColor=#8C4FFF;strokeColor=#ffffff;dashed=0;verticalLabelPosition=bottom;verticalAlign=top;align=center;html=1;fontSize=12;fontStyle=0;aspect=fixed;shape=mxgraph.aws4.resourceIcon;resIcon=mxgraph.aws4.quicksight;" parent="1" vertex="1">
          <mxGeometry x="184.99" y="644.8800000000001" width="45.63" height="45.63" as="geometry" />
        </mxCell>
        <mxCell id="HpYjvm5Cg7NbYrYv6aXX-54" value="" style="sketch=0;outlineConnect=0;fontColor=#232F3E;gradientColor=none;fillColor=#8C4FFF;strokeColor=none;dashed=0;verticalLabelPosition=bottom;verticalAlign=top;align=center;html=1;fontSize=12;fontStyle=0;aspect=fixed;pointerEvents=1;shape=mxgraph.aws4.opensearch_service_traces;" parent="1" vertex="1">
          <mxGeometry x="270" y="642.6999999999999" width="50" height="50" as="geometry" />
        </mxCell>
        <mxCell id="HpYjvm5Cg7NbYrYv6aXX-55" value="" style="sketch=0;points=[[0,0,0],[0.25,0,0],[0.5,0,0],[0.75,0,0],[1,0,0],[0,1,0],[0.25,1,0],[0.5,1,0],[0.75,1,0],[1,1,0],[0,0.25,0],[0,0.5,0],[0,0.75,0],[1,0.25,0],[1,0.5,0],[1,0.75,0]];outlineConnect=0;fontColor=#232F3E;fillColor=#8C4FFF;strokeColor=#ffffff;dashed=0;verticalLabelPosition=bottom;verticalAlign=top;align=center;html=1;fontSize=12;fontStyle=0;aspect=fixed;shape=mxgraph.aws4.resourceIcon;resIcon=mxgraph.aws4.glue_elastic_views;" parent="1" vertex="1">
          <mxGeometry x="365" y="644.13" width="50" height="50" as="geometry" />
        </mxCell>
        <mxCell id="b6hRnU-GCGQrzbsoPXIs-10" value="IP: if seerver" style="text;html=1;align=center;verticalAlign=middle;resizable=0;points=[];autosize=1;strokeColor=none;fillColor=none;" parent="1" vertex="1">
          <mxGeometry x="249.99" y="88.11999999999999" width="90" height="30" as="geometry" />
        </mxCell>
        <mxCell id="b6hRnU-GCGQrzbsoPXIs-11" value="clock" style="text;html=1;align=center;verticalAlign=middle;resizable=0;points=[];autosize=1;strokeColor=none;fillColor=none;" parent="1" vertex="1">
          <mxGeometry x="165" y="50" width="50" height="30" as="geometry" />
        </mxCell>
        <mxCell id="b6hRnU-GCGQrzbsoPXIs-13" value="" style="rounded=1;whiteSpace=wrap;html=1;fillColor=#0371C2;" parent="1" vertex="1">
          <mxGeometry x="149.7" y="939.6" width="330" height="184.06" as="geometry" />
        </mxCell>
        <mxCell id="HpYjvm5Cg7NbYrYv6aXX-104" value="" style="html=1;verticalLabelPosition=bottom;labelBackgroundColor=#ffffff;verticalAlign=top;shadow=0;dashed=0;strokeWidth=1;shape=mxgraph.ios7ui.onOffButton;buttonState=on;strokeColor=#38D145;strokeColor2=#aaaaaa;fillColor=#38D145;fillColor2=#ffffff;" parent="1" vertex="1">
          <mxGeometry x="190" y="950" width="43.5" height="15" as="geometry" />
        </mxCell>
        <mxCell id="HpYjvm5Cg7NbYrYv6aXX-105" value="Controll every Circle different from each other (&quot;switch&quot;)" style="text;html=1;align=center;verticalAlign=middle;whiteSpace=wrap;rounded=0;" parent="1" vertex="1">
          <mxGeometry x="260" y="942.5" width="200" height="30" as="geometry" />
        </mxCell>
        <mxCell id="HpYjvm5Cg7NbYrYv6aXX-110" value="" style="html=1;verticalLabelPosition=bottom;labelBackgroundColor=#ffffff;verticalAlign=top;shadow=0;dashed=0;strokeWidth=2;shape=mxgraph.ios7.misc.delete;fillColor=#ff0000;strokeColor=#ffffff;sketch=0;" parent="1" vertex="1">
          <mxGeometry x="300" y="990" width="30" height="30" as="geometry" />
        </mxCell>
        <mxCell id="HpYjvm5Cg7NbYrYv6aXX-111" value="17.0 °C" style="text;html=1;align=center;verticalAlign=middle;resizable=0;points=[];autosize=1;strokeColor=none;fillColor=none;" parent="1" vertex="1">
          <mxGeometry x="330" y="990" width="60" height="30" as="geometry" />
        </mxCell>
        <mxCell id="HpYjvm5Cg7NbYrYv6aXX-106" value="" style="html=1;verticalLabelPosition=bottom;labelBackgroundColor=#ffffff;verticalAlign=top;shadow=0;dashed=0;strokeWidth=2;shape=mxgraph.ios7.misc.add;fillColor=#00dd00;strokeColor=#ffffff;sketch=0;" parent="1" vertex="1">
          <mxGeometry x="397.18" y="990" width="30" height="30" as="geometry" />
        </mxCell>
        <mxCell id="HpYjvm5Cg7NbYrYv6aXX-112" value="Hour" style="rounded=1;whiteSpace=wrap;html=1;" parent="1" vertex="1">
          <mxGeometry x="169.99" y="980.0000000000001" width="80" height="40" as="geometry" />
        </mxCell>
        <mxCell id="HpYjvm5Cg7NbYrYv6aXX-115" value="list" style="text;html=1;align=center;verticalAlign=middle;resizable=0;points=[];autosize=1;strokeColor=none;fillColor=none;" parent="1" vertex="1">
          <mxGeometry x="220" y="1036.63" width="40" height="30" as="geometry" />
        </mxCell>
        <mxCell id="HpYjvm5Cg7NbYrYv6aXX-114" value="" style="endArrow=classic;html=1;rounded=0;" parent="1" edge="1">
          <mxGeometry width="50" height="50" relative="1" as="geometry">
            <mxPoint x="210" y="1020.29" as="sourcePoint" />
            <mxPoint x="210" y="1059.51" as="targetPoint" />
          </mxGeometry>
        </mxCell>
        <mxCell id="HpYjvm5Cg7NbYrYv6aXX-120" value="" style="html=1;verticalLabelPosition=bottom;labelBackgroundColor=#ffffff;verticalAlign=top;shadow=0;dashed=0;strokeWidth=5;shape=mxgraph.ios7.misc.left;strokeColor=#0080f0;rotation=-180;" parent="1" vertex="1">
          <mxGeometry x="240" y="1085.32" width="20" height="30" as="geometry" />
        </mxCell>
        <mxCell id="HpYjvm5Cg7NbYrYv6aXX-121" value="page" style="text;html=1;align=center;verticalAlign=middle;resizable=0;points=[];autosize=1;strokeColor=none;fillColor=none;" parent="1" vertex="1">
          <mxGeometry x="182.81" y="1085.32" width="50" height="30" as="geometry" />
        </mxCell>
        <mxCell id="HpYjvm5Cg7NbYrYv6aXX-107" value="" style="endArrow=none;html=1;rounded=0;strokeWidth=2;startArrow=blockThin;startFill=1;" parent="1" edge="1">
          <mxGeometry width="50" height="50" relative="1" as="geometry">
            <mxPoint x="280" y="1030.9199999999998" as="sourcePoint" />
            <mxPoint x="280" y="1116.7399999999998" as="targetPoint" />
          </mxGeometry>
        </mxCell>
        <mxCell id="HpYjvm5Cg7NbYrYv6aXX-108" value="" style="endArrow=none;html=1;rounded=0;strokeWidth=2;endFill=1;startFill=1;startArrow=blockThin;" parent="1" edge="1">
          <mxGeometry width="50" height="50" relative="1" as="geometry">
            <mxPoint x="450" y="1117.11" as="sourcePoint" />
            <mxPoint x="280" y="1117.11" as="targetPoint" />
          </mxGeometry>
        </mxCell>
        <mxCell id="HpYjvm5Cg7NbYrYv6aXX-109" value="" style="endArrow=none;html=1;rounded=0;strokeWidth=3;strokeColor=#33FFFF;" parent="1" edge="1">
          <mxGeometry width="50" height="50" relative="1" as="geometry">
            <mxPoint x="280" y="1085.3700000000001" as="sourcePoint" />
            <mxPoint x="450" y="1085.11" as="targetPoint" />
            <Array as="points">
              <mxPoint x="300" y="1057.11" />
              <mxPoint x="310" y="1085.11" />
              <mxPoint x="330" y="1067.11" />
              <mxPoint x="370" y="1077.11" />
              <mxPoint x="380" y="1087.11" />
              <mxPoint x="400" y="1047.11" />
              <mxPoint x="420" y="1047.11" />
              <mxPoint x="430" y="1085.11" />
            </Array>
          </mxGeometry>
        </mxCell>
        <mxCell id="HpYjvm5Cg7NbYrYv6aXX-119" value="" style="html=1;verticalLabelPosition=bottom;labelBackgroundColor=#ffffff;verticalAlign=top;shadow=0;dashed=0;strokeWidth=5;shape=mxgraph.ios7.misc.left;strokeColor=#0080f0;" parent="1" vertex="1">
          <mxGeometry x="162.81" y="1085.32" width="20" height="30" as="geometry" />
        </mxCell>
      </root>
    </mxGraphModel>
  </diagram>
</mxfile>
